<svg width="35" height="35" viewBox="0 0 35 35" fill="none" xmlns="http://www.w3.org/2000/svg">
<g clip-path="url(#clip0_943_42)">
<path d="M29.9015 14.976C29.9423 10.1825 25.8596 5.78801 20.8004 5.18034C20.6998 5.16841 20.5902 5.15025 20.4742 5.13103C20.2237 5.08953 19.9647 5.04688 19.7034 5.04688C18.6665 5.04688 18.3893 5.77524 18.3163 6.20963C18.2454 6.63199 18.3131 6.98667 18.5172 7.26427C18.8605 7.73119 19.4647 7.81407 19.95 7.88049C20.0923 7.90013 20.2265 7.9184 20.3388 7.94363C24.8842 8.9593 26.4148 10.5561 27.1628 15.0629C27.181 15.1731 27.1893 15.3088 27.198 15.4527C27.2307 15.9914 27.2987 17.1122 28.5037 17.1122H28.5038C28.6041 17.1122 28.7119 17.1036 28.8241 17.0865C29.9462 16.9159 29.9111 15.8914 29.8942 15.3991C29.8894 15.2605 29.8849 15.1294 29.8966 15.0421C29.8998 15.0202 29.9014 14.9981 29.9015 14.976Z" fill="white"/>
<path d="M19.409 3.42333C19.5436 3.43305 19.6711 3.44234 19.7772 3.4586C27.2412 4.60647 30.6739 8.14289 31.6251 15.6653C31.6413 15.7932 31.6438 15.9492 31.6465 16.1143C31.656 16.702 31.6755 17.9247 32.9885 17.95L33.0293 17.9504C33.4411 17.9504 33.7686 17.8262 34.0029 17.5811C34.4117 17.1535 34.3831 16.5184 34.3601 16.008C34.3545 15.8828 34.3491 15.7648 34.3505 15.6615C34.4454 7.96804 27.7859 0.991596 20.0992 0.732161C20.0673 0.731105 20.0369 0.732795 20.0062 0.737124C19.9911 0.739341 19.9631 0.742087 19.9152 0.742087C19.8385 0.742087 19.7442 0.735434 19.6442 0.728677C19.5233 0.720441 19.3863 0.710938 19.2473 0.710938C18.0232 0.710938 17.7905 1.581 17.7607 2.09966C17.6921 3.29832 18.8517 3.38268 19.409 3.42333Z" fill="white"/>
<path d="M31.2681 25.3908C31.1094 25.2696 30.9453 25.1442 30.7917 25.0204C29.9767 24.3646 29.1097 23.7601 28.2712 23.1755C28.0972 23.0542 27.9232 22.9329 27.7498 22.8113C26.6758 22.0568 25.7102 21.6902 24.7979 21.6902C23.5691 21.6902 22.4978 22.3692 21.6136 23.7079C21.2218 24.3015 20.7466 24.59 20.1609 24.59C19.8145 24.59 19.421 24.4912 18.9914 24.2962C15.5245 22.7241 13.049 20.3137 11.6333 17.1319C10.949 15.5941 11.1708 14.5889 12.3752 13.7708C13.0591 13.3066 14.3321 12.4424 14.2419 10.7876C14.1398 8.90845 9.9935 3.2542 8.24652 2.61201C7.50686 2.34001 6.72971 2.33747 5.93251 2.60567C3.92419 3.28081 2.48299 4.46648 1.76434 6.03429C1.06988 7.54919 1.10124 9.32796 1.85504 11.1783C4.03421 16.5281 7.09801 21.1925 10.9617 25.0416C14.7435 28.8094 19.3917 31.8958 24.777 34.2147C25.2624 34.4235 25.7715 34.5375 26.1433 34.6206C26.27 34.6491 26.3794 34.6734 26.4591 34.6952C26.5029 34.7072 26.5481 34.7136 26.5934 34.714L26.636 34.7142C26.636 34.7142 26.636 34.7142 26.6362 34.7142C29.1691 34.7142 32.2104 32.3997 33.1444 29.761C33.9628 27.4505 32.4687 26.3084 31.2681 25.3908Z" fill="white"/>
<path d="M20.5333 9.53217C20.0997 9.54315 19.1972 9.56554 18.8805 10.4847C18.7324 10.9142 18.7501 11.2872 18.9333 11.5932C19.2021 12.0422 19.7172 12.1797 20.1857 12.2552C21.8848 12.5279 22.7574 13.4674 22.9319 15.2118C23.013 16.0251 23.5607 16.5931 24.2639 16.5931C24.3159 16.5931 24.3691 16.59 24.422 16.5836C25.2678 16.483 25.6778 15.8616 25.6407 14.7368C25.6542 13.563 25.0399 12.2303 23.9951 11.1688C22.9467 10.104 21.6829 9.5044 20.5333 9.53217Z" fill="white"/>
</g>
<defs>
<clipPath id="clip0_943_42">
<rect width="34" height="34" fill="white" transform="translate(0.820312 0.710938)"/>
</clipPath>
</defs>
</svg>
