<svg width="35" height="35" viewBox="0 0 35 35" fill="none" xmlns="http://www.w3.org/2000/svg">
<g clip-path="url(#clip0_168_113)">
<path d="M17.3988 16.6463C20.4721 16.6463 22.9724 14.1463 22.9724 11.0734C22.9724 8.00055 20.4721 5.50063 17.3988 5.50063C14.3255 5.50063 11.8252 8.00055 11.8252 11.0734C11.8252 14.1463 14.3255 16.6463 17.3988 16.6463ZM17.3988 7.49255C19.3736 7.49255 20.9802 9.09898 20.9802 11.0734C20.9802 13.048 19.3737 14.6544 17.3988 14.6544C15.4239 14.6544 13.8174 13.048 13.8174 11.0734C13.8174 9.09898 15.424 7.49255 17.3988 7.49255Z" fill="#0B3D2C"/>
<path d="M11.3296 21.0874C12.8394 23.1312 12.2328 22.3363 16.5814 28.545C16.9767 29.1115 17.8172 29.1142 18.2147 28.5459C22.5829 22.3077 21.9819 23.0978 23.4671 21.0873C24.9715 19.0505 26.5273 16.9444 27.3798 14.4763C28.6137 10.9036 28.0803 7.36857 25.8781 4.5224C25.878 4.5224 25.878 4.52233 25.878 4.52233C23.8607 1.91596 20.6907 0.359924 17.3983 0.359924C14.106 0.359924 10.936 1.91596 8.91867 4.52247C6.71644 7.36864 6.18306 10.9037 7.41702 14.4764C8.26941 16.9444 9.82518 19.0506 11.3296 21.0874ZM10.4942 5.74142C12.137 3.61901 14.718 2.35185 17.3983 2.35185C20.0787 2.35185 22.6597 3.61901 24.3025 5.74142L24.3023 5.74135C26.0798 8.03848 26.5039 10.9098 25.4967 13.8262C24.7437 16.0062 23.28 17.9877 21.8646 19.9039C20.7625 21.3959 21.0923 20.9396 17.3983 26.2347C13.7082 20.9449 14.0339 21.3954 12.9321 19.9039C11.5167 17.9877 10.053 16.0061 9.30004 13.8262C8.29279 10.9097 8.71686 8.03848 10.4942 5.74142Z" fill="#0B3D2C"/>
<path d="M12.1475 25.4055C11.8537 24.9405 11.2385 24.8015 10.7734 25.0954L7.94115 26.8842C7.3233 27.2744 7.3227 28.1776 7.94115 28.5682L16.8661 34.2053C17.1911 34.4106 17.6052 34.4105 17.93 34.2053L26.855 28.5682C27.473 28.178 27.4735 27.2748 26.855 26.8842L24.0228 25.0954C23.5576 24.8016 22.9425 24.9405 22.6487 25.4055C22.3549 25.8705 22.4938 26.4857 22.9589 26.7795L24.458 27.7262L17.3981 32.1853L10.3382 27.7262L11.8373 26.7795C12.3024 26.4857 12.4412 25.8706 12.1475 25.4055Z" fill="#0B3D2C"/>
</g>
<defs>
<clipPath id="clip0_168_113">
<rect width="34" height="34" fill="white" transform="translate(0.398438 0.359924)"/>
</clipPath>
</defs>
</svg>
