<svg width="34" height="34" viewBox="0 0 34 34" fill="none" xmlns="http://www.w3.org/2000/svg">
<g clip-path="url(#clip0_238_812)">
<path d="M10.5267 17.3966C12.1416 19.3072 14.5179 20.4069 17.0195 20.4016C19.5211 20.3962 21.8926 19.2863 23.4994 17.3689C23.5107 17.3575 23.5215 17.3456 23.5317 17.3332C26.4161 13.8728 26.0999 8.76315 22.8108 5.68484C19.5218 2.60654 14.4024 2.62883 11.1403 5.73567C7.87826 8.84251 7.60658 13.9548 10.521 17.3898L10.5267 17.3966ZM11.9473 17.2482C12.3536 17.1773 12.7692 17.1796 13.1747 17.255C13.9184 17.4209 14.6975 17.2934 15.3496 16.8991C16.3678 16.2897 17.6389 16.2908 18.6561 16.9019C19.3033 17.2929 20.0761 17.4201 20.8145 17.2572C21.2241 17.1788 21.6445 17.175 22.0555 17.2459C19.225 19.941 14.7778 19.941 11.9473 17.2459V17.2482ZM17.0003 4.53331C19.7868 4.52799 22.3369 6.09841 23.5863 8.58918C24.8357 11.0799 24.5697 14.063 22.8993 16.2933C22.1552 16.0397 21.357 15.9886 20.5867 16.1454C20.1303 16.2525 19.6502 16.1768 19.2488 15.9346C18.7429 15.6253 18.1772 15.4266 17.589 15.3515C17.6644 13.9415 18.0389 12.5636 18.6878 11.3095C18.7508 11.3202 18.8144 11.3276 18.8782 11.3316C19.6442 11.3228 20.3444 10.897 20.7046 10.2209C21.1318 9.42761 20.9573 8.28805 20.7369 7.47318C20.6715 7.22709 20.5061 7.01963 20.2807 6.90118C20.0553 6.78272 19.7906 6.76411 19.5508 6.84985C18.7399 7.13318 17.6842 7.63071 17.2587 8.41895C16.9951 8.90665 16.9366 9.47921 17.096 10.0101C17.1982 10.3369 17.3882 10.6294 17.6451 10.8556C17.2817 11.5678 16.9967 12.3174 16.7951 13.0911C16.4891 12.6423 16.099 12.2571 15.6465 11.9566C15.6619 11.8328 15.6652 11.7077 15.6561 11.5832C15.6106 11.0301 15.3467 10.5179 14.9229 10.1597C14.2429 9.58231 13.0733 9.50355 12.2255 9.53641C11.9678 9.54325 11.7247 9.65772 11.5552 9.85205C11.3907 10.0414 11.3125 10.2906 11.3393 10.54C11.4311 11.382 11.6844 12.508 12.3712 13.09C12.7531 13.4172 13.239 13.5979 13.7419 13.6C14.2747 13.6032 14.7854 13.3868 15.1535 13.0016C15.8908 13.5683 16.3457 14.4272 16.4002 15.3555C15.8178 15.4307 15.2579 15.6279 14.7568 15.9341C14.3501 16.178 13.8643 16.2539 13.4025 16.1454C12.6355 15.9943 11.8424 16.0465 11.1018 16.2967C9.42943 14.0664 9.16219 11.0821 10.4117 8.59019C11.6612 6.09822 14.2126 4.52724 17.0003 4.53331ZM19.7021 8.00415C19.8811 8.54924 19.8829 9.13701 19.7072 9.68318C19.4988 10.1166 18.9861 10.3092 18.5439 10.1201C18.3668 10.0279 18.2347 9.86778 18.1778 9.67638C18.1081 9.43599 18.1367 9.17779 18.2571 8.95841C18.6288 8.49881 19.1335 8.16547 19.7021 8.00415ZM12.497 10.6618C13.084 10.6137 13.6722 10.7392 14.1885 11.0228C14.3817 11.1832 14.5031 11.4141 14.5256 11.6642C14.5423 11.8621 14.4788 12.0583 14.3494 12.2088C14.0063 12.5489 13.4559 12.5571 13.1027 12.2275C12.7399 11.7831 12.5277 11.2347 12.497 10.6618Z" fill="#2A7D2E"/>
<path d="M4.74882 30.4895C4.99478 30.8375 5.41224 31.0219 5.83512 30.9695L9.07306 30.5728L10.6813 33.4095C10.8835 33.7734 11.2668 33.9994 11.6831 34H11.7143C12.1429 33.9877 12.529 33.7378 12.7156 33.3517L17.0002 24.5304L21.2853 33.3546C21.4728 33.7392 21.8583 33.9878 22.286 34H22.3172C22.7325 33.9997 23.1153 33.7749 23.3179 33.4124L24.9465 30.562L28.1686 30.97C28.5921 31.0202 29.009 30.8343 29.2545 30.4857C29.5001 30.1371 29.5348 29.6819 29.345 29.3001L25.0219 20.5802C25.1679 20.5165 25.301 20.4267 25.4146 20.315C25.7667 19.8637 25.9329 19.2948 25.8793 18.7249C25.8654 18.4487 25.9058 18.1724 25.9983 17.9118C26.202 17.7302 26.4391 17.5901 26.6964 17.4992C27.2473 17.3304 27.7125 16.9568 27.9963 16.4554C28.1477 15.9071 28.0838 15.3217 27.8178 14.8189C27.6963 14.5662 27.6273 14.2915 27.615 14.0114C27.7324 13.7703 27.8952 13.5541 28.0944 13.3745C28.5415 13.004 28.8299 12.4764 28.9002 11.9C28.8296 11.324 28.5413 10.7968 28.0944 10.4267C27.895 10.247 27.7322 10.0305 27.615 9.78917C27.6274 9.50962 27.6964 9.23549 27.8178 8.98337C28.084 8.48044 28.1481 7.89484 27.9969 7.34627C27.7121 6.84428 27.2456 6.47068 26.6936 6.30247C26.4363 6.21158 26.1992 6.07146 25.9954 5.88993C25.903 5.62947 25.8627 5.35335 25.877 5.07733C25.9306 4.50727 25.7644 3.93826 25.4123 3.4867C24.961 3.13463 24.3922 2.9684 23.8223 3.02203C23.546 3.03589 23.2698 2.99546 23.0091 2.90303C22.8276 2.69931 22.6874 2.46218 22.5966 2.2049C22.428 1.65515 22.0556 1.19068 21.5556 0.906667C21.0073 0.755364 20.4219 0.819215 19.9191 1.08517C19.6661 1.20586 19.3915 1.27483 19.1116 1.28803C18.8698 1.16987 18.6532 1.00612 18.4735 0.8058C18.1033 0.358881 17.5762 0.0705639 17.0002 0C16.4242 0.0705639 15.897 0.358881 15.5268 0.8058C15.3472 1.00515 15.1307 1.16793 14.8893 1.2852C14.6098 1.27224 14.3358 1.20325 14.0835 1.08233C13.5809 0.815315 12.9949 0.751227 12.4464 0.903267C11.9444 1.18803 11.5708 1.65453 11.4026 2.2066C11.3117 2.46388 11.1716 2.70101 10.9901 2.90473C10.7296 2.99717 10.4535 3.03741 10.1775 3.02317C9.60743 2.96956 9.03842 3.13578 8.58686 3.48783C8.23479 3.93917 8.06855 4.50801 8.12219 5.0779C8.13605 5.35413 8.09562 5.63039 8.00319 5.89107C7.79946 6.07259 7.56234 6.21271 7.30506 6.3036C6.75531 6.47216 6.29084 6.84459 6.00682 7.34457C5.85546 7.89288 5.91932 8.47831 6.18532 8.9811C6.30682 9.23379 6.37583 9.50849 6.38819 9.7886C6.27074 10.0297 6.10798 10.2459 5.90879 10.4255C5.46056 10.7955 5.17117 11.3232 5.10016 11.9C5.17072 12.476 5.45904 13.0032 5.90596 13.3733C6.10531 13.553 6.26809 13.7695 6.38536 14.0108C6.37297 14.2906 6.30396 14.5649 6.18249 14.8172C5.91601 15.3198 5.85194 15.9054 6.00342 16.4537C6.28819 16.9557 6.75469 17.3293 7.30676 17.4975C7.56404 17.5884 7.80116 17.7285 8.00489 17.9101C8.09733 18.1705 8.13757 18.4467 8.12332 18.7227C8.06971 19.2927 8.23594 19.8617 8.58799 20.3133C8.70171 20.4252 8.83501 20.5153 8.98126 20.5791L4.65759 29.3001C4.46681 29.6831 4.50186 30.14 4.74882 30.4895ZM28.308 29.8452L25.0876 29.4372C24.6236 29.3786 24.1704 29.6069 23.9413 30.0146L22.3036 32.857L17.7861 23.5546C18.0333 23.3906 18.2638 23.2029 18.4746 22.9942C18.6543 22.7948 18.8707 22.6321 19.1121 22.5148C19.3916 22.528 19.6655 22.597 19.9179 22.7177C20.4208 22.984 21.0065 23.048 21.555 22.8967C22.057 22.612 22.4306 22.1455 22.5988 21.5934C22.6897 21.3361 22.8298 21.099 23.0114 20.8953C23.2718 20.8028 23.5479 20.7626 23.824 20.7768H23.854L28.308 29.8452ZM7.77256 16.4668C7.49319 16.3398 7.11012 16.1653 7.05006 16.0208C7.05366 15.7413 7.11988 15.4661 7.24386 15.2156C7.45692 14.7732 7.54453 14.2808 7.49716 13.7921C7.35869 13.3323 7.09475 12.9202 6.73499 12.6021C6.52306 12.3743 6.23349 12.0638 6.23349 11.9C6.23349 11.7362 6.52306 11.4257 6.73499 11.1996C7.09471 10.8815 7.35864 10.4694 7.49716 10.0096C7.54478 9.52074 7.45737 9.02818 7.24442 8.58557C7.12049 8.3348 7.05427 8.05946 7.05062 7.77977C7.11069 7.63527 7.49376 7.46073 7.77312 7.3338C8.23111 7.17432 8.63622 6.89157 8.94386 6.51667C9.17357 6.08654 9.28079 5.60161 9.25382 5.11473C9.23339 4.83162 9.27897 4.54763 9.38699 4.28513C9.64938 4.17744 9.93311 4.13187 10.216 4.15197C10.7024 4.1795 11.187 4.07287 11.6168 3.8437C11.9906 3.53537 12.2723 3.13015 12.4311 2.6724C12.5581 2.39303 12.7326 2.00997 12.8771 1.9499C13.1568 1.95342 13.4322 2.01964 13.6829 2.1437C14.1251 2.35666 14.6173 2.44427 15.1058 2.397C15.5656 2.25853 15.9777 1.9946 16.2958 1.63483C16.5259 1.4229 16.8364 1.13333 17.0002 1.13333C17.1639 1.13333 17.4745 1.4229 17.7006 1.63483C18.0187 1.99455 18.4308 2.25848 18.8906 2.397C19.3794 2.44338 19.8716 2.35602 20.3146 2.14427C20.5655 2.02072 20.8407 1.95452 21.1204 1.95047C21.2649 2.01053 21.4394 2.3936 21.5664 2.67297C21.7258 3.13096 22.0086 3.53607 22.3835 3.8437C22.8136 4.07341 23.2985 4.18063 23.7854 4.15367C24.0685 4.13323 24.3525 4.17881 24.615 4.28683C24.7227 4.54922 24.7683 4.83295 24.7482 5.11587C24.7206 5.60309 24.8276 6.08851 25.0576 6.51893C25.3659 6.89268 25.7711 7.1744 26.2289 7.33323C26.5083 7.46017 26.8913 7.6347 26.9514 7.7792C26.9477 8.0589 26.8815 8.33423 26.7576 8.585C26.5446 9.02719 26.457 9.51936 26.5043 10.0079C26.6428 10.4677 26.9067 10.8798 27.2665 11.1979C27.4784 11.4246 27.768 11.7345 27.768 11.8983C27.768 12.0621 27.4784 12.3726 27.2665 12.5987C26.9067 12.9168 26.6428 13.3289 26.5043 13.7887C26.4567 14.2776 26.5441 14.7701 26.757 15.2127C26.881 15.4635 26.9472 15.7388 26.9508 16.0185C26.8908 16.163 26.5077 16.3376 26.2283 16.4645C25.7697 16.6243 25.3642 16.9076 25.0565 17.2833C24.8267 17.7135 24.7195 18.1984 24.7465 18.6853C24.7669 18.9684 24.7213 19.2524 24.6133 19.5149C24.4775 19.592 24.3235 19.6312 24.1674 19.6282H24.1555C24.0302 19.6384 23.8999 19.6446 23.7843 19.6492C23.2971 19.6216 22.8116 19.7286 22.3812 19.9586C22.0075 20.2669 21.7258 20.6721 21.5669 21.1299C21.44 21.4092 21.2655 21.7923 21.121 21.8524C20.8414 21.8478 20.5662 21.7816 20.3152 21.6586C19.8731 21.4451 19.3808 21.3575 18.8923 21.4053C18.4324 21.5437 18.0203 21.8077 17.7023 22.1674C17.4756 22.3794 17.1656 22.6689 17.0019 22.6689C16.8381 22.6689 16.5276 22.3794 16.3015 22.1674C15.9833 21.8077 15.5712 21.5438 15.1115 21.4053C15.0193 21.3871 14.9255 21.3782 14.8315 21.3786C14.4367 21.4039 14.0494 21.4985 13.6874 21.658C13.4369 21.7826 13.1614 21.8488 12.8816 21.8518C12.7371 21.7917 12.5626 21.4087 12.4357 21.1293C12.2761 20.6703 11.9927 20.2643 11.6168 19.9563C11.1867 19.7266 10.7018 19.6194 10.2149 19.6463C10.1016 19.6424 9.96782 19.6356 9.84202 19.6254H9.83352C9.67662 19.6287 9.52173 19.5896 9.38529 19.512C9.2776 19.2496 9.23202 18.9659 9.25212 18.683C9.27973 18.1958 9.17269 17.7104 8.94272 17.2799C8.63455 16.9068 8.22976 16.6255 7.77256 16.4668ZM10.1435 20.778H10.1741C10.4503 20.7641 10.7266 20.8045 10.9873 20.897C11.1688 21.1007 11.3089 21.3378 11.3998 21.5951C11.5687 22.146 11.9422 22.6112 12.4436 22.895C12.9919 23.0469 13.5775 22.983 14.0801 22.7165C14.3328 22.5949 14.6075 22.5259 14.8876 22.5137C15.1287 22.6311 15.345 22.7939 15.5246 22.9931C15.7352 23.2013 15.9654 23.3888 16.2119 23.5529L11.6673 32.8525L10.0579 30.0135C9.82755 29.6062 9.37419 29.3782 8.90986 29.4361L5.66909 29.8027L10.1435 20.778Z" fill="#2A7D2E"/>
<path d="M9.36554 27.4516L11.0514 24.0516C11.1488 23.8694 11.1393 23.6487 11.0267 23.4755C10.914 23.3023 10.7161 23.2041 10.51 23.2193C10.304 23.2345 10.1225 23.3606 10.0365 23.5484L8.35064 26.9484C8.25322 27.1306 8.26268 27.3514 8.37533 27.5246C8.48798 27.6978 8.68595 27.796 8.892 27.7808C9.09804 27.7656 9.2795 27.6395 9.36554 27.4516Z" fill="#2A7D2E"/>
<path d="M20.579 24.119C20.4423 23.8373 20.1031 23.7199 19.8214 23.8566C19.5397 23.9934 19.4223 24.3326 19.559 24.6143L21.59 28.794C21.7266 29.0757 22.0656 29.1933 22.3473 29.0566C22.629 28.92 22.7466 28.581 22.61 28.2993L20.579 24.119Z" fill="#2A7D2E"/>
</g>
<defs>
<clipPath id="clip0_238_812">
<rect width="34" height="34" fill="white"/>
</clipPath>
</defs>
</svg>
