<svg width="35" height="35" viewBox="0 0 35 35" fill="none" xmlns="http://www.w3.org/2000/svg">
<g clip-path="url(#clip0_168_83)">
<path d="M27.2239 21.0849C26.5279 20.3601 25.6883 19.9726 24.7985 19.9726C23.9158 19.9726 23.0691 20.353 22.3443 21.0777L20.0767 23.3382C19.8901 23.2377 19.7035 23.1444 19.5241 23.0511C19.2658 22.922 19.0218 22.8 18.8137 22.6708C16.6897 21.3217 14.7593 19.5636 12.9079 17.2888C12.0109 16.1551 11.4082 15.2007 10.9704 14.2319C11.5589 13.6937 12.1042 13.134 12.6352 12.5958C12.8362 12.3949 13.0371 12.1868 13.238 11.9858C14.745 10.4789 14.745 8.52704 13.238 7.02009L11.279 5.06106C11.0565 4.83861 10.8269 4.60898 10.6116 4.37935C10.1811 3.93444 9.729 3.47518 9.26256 3.04462C8.56649 2.35573 7.73409 1.98976 6.85862 1.98976C5.98316 1.98976 5.1364 2.35573 4.4188 3.04462C4.41163 3.0518 4.41163 3.0518 4.40445 3.05898L1.96464 5.52032C1.04612 6.43884 0.522273 7.55829 0.407458 8.85713C0.235235 10.9525 0.852365 12.9044 1.32598 14.1817C2.48848 17.3176 4.22505 20.2238 6.81557 23.3382C9.95862 27.0912 13.7403 30.0548 18.0603 32.143C19.7107 32.9252 21.9137 33.8509 24.3751 34.0088C24.5258 34.0159 24.6836 34.0231 24.8272 34.0231C26.4848 34.0231 27.8769 33.4275 28.9677 32.2435C28.9748 32.2291 28.9892 32.222 28.9964 32.2076C29.3695 31.7555 29.8001 31.3465 30.2522 30.9088C30.5607 30.6146 30.8765 30.306 31.185 29.9831C31.8955 29.244 32.2686 28.3828 32.2686 27.5002C32.2686 26.6104 31.8883 25.7564 31.1635 25.0389L27.2239 21.0849ZM29.7929 28.6412C29.7857 28.6412 29.7857 28.6484 29.7929 28.6412C29.513 28.9426 29.226 29.2153 28.9174 29.5166C28.451 29.9615 27.9774 30.428 27.5325 30.9518C26.8077 31.7268 25.9538 32.0928 24.8343 32.0928C24.7267 32.0928 24.6119 32.0928 24.5042 32.0856C22.373 31.9493 20.3924 31.1169 18.907 30.4065C14.8454 28.4403 11.279 25.6488 8.31534 22.1111C5.86834 19.1618 4.23223 16.4349 3.14866 13.5071C2.4813 11.7203 2.23732 10.3282 2.34496 9.015C2.41672 8.17542 2.73964 7.47935 3.33524 6.88375L5.78223 4.43675C6.13385 4.10666 6.507 3.92726 6.87297 3.92726C7.32506 3.92726 7.69103 4.19995 7.92066 4.42958C7.92784 4.43675 7.93501 4.44393 7.94219 4.45111C8.37992 4.86013 8.79612 5.28351 9.23386 5.7356C9.45631 5.96523 9.68594 6.19486 9.91557 6.43166L11.8746 8.39069C12.6352 9.15134 12.6352 9.85458 11.8746 10.6152C11.6665 10.8233 11.4656 11.0314 11.2575 11.2324C10.6547 11.8495 10.0806 12.4236 9.45631 12.9833C9.44196 12.9976 9.42761 13.0048 9.42043 13.0192C8.8033 13.6363 8.91811 14.2391 9.04728 14.6481C9.05446 14.6696 9.06163 14.6912 9.06881 14.7127C9.5783 15.9469 10.2959 17.1095 11.3866 18.4944L11.3938 18.5016C13.3744 20.9414 15.4626 22.843 17.766 24.2997C18.0603 24.4863 18.3616 24.637 18.6487 24.7805C18.907 24.9097 19.151 25.0317 19.3591 25.1608C19.3878 25.1752 19.4165 25.1967 19.4452 25.2111C19.6892 25.3331 19.9188 25.3905 20.1556 25.3905C20.7512 25.3905 21.1244 25.0173 21.2464 24.8953L23.7005 22.4412C23.9445 22.1972 24.332 21.903 24.7841 21.903C25.229 21.903 25.595 22.1828 25.8174 22.4268C25.8246 22.434 25.8246 22.434 25.8318 22.4412L29.7857 26.3951C30.5249 27.1271 30.5249 27.8805 29.7929 28.6412Z" fill="#0B3D2C"/>
<path d="M18.7281 8.11017C20.6082 8.42591 22.316 9.31572 23.6795 10.6792C25.0429 12.0426 25.9255 13.7505 26.2484 15.6305C26.3274 16.1042 26.7364 16.4342 27.2028 16.4342C27.2603 16.4342 27.3105 16.4271 27.3679 16.4199C27.8989 16.3338 28.2505 15.8315 28.1644 15.3005C27.7769 13.0257 26.7005 10.9518 25.0572 9.30855C23.414 7.66526 21.3401 6.58887 19.0653 6.20137C18.5343 6.11526 18.0392 6.46688 17.9459 6.99072C17.8526 7.51457 18.1971 8.02406 18.7281 8.11017Z" fill="#0B3D2C"/>
<path d="M34.3137 15.0206C33.675 11.2748 31.9097 7.86619 29.1972 5.15369C26.4847 2.44118 23.0761 0.675903 19.3303 0.0372453C18.8065 -0.0560418 18.3113 0.302755 18.218 0.826598C18.1319 1.35762 18.4836 1.85276 19.0146 1.94604C22.3586 2.51294 25.4083 4.09882 27.8338 6.51711C30.2593 8.94258 31.838 11.9923 32.4049 15.3363C32.4838 15.8099 32.8928 16.14 33.3593 16.14C33.4167 16.14 33.4669 16.1329 33.5243 16.1257C34.0481 16.0468 34.4069 15.5444 34.3137 15.0206Z" fill="#0B3D2C"/>
</g>
<defs>
<clipPath id="clip0_168_83">
<rect width="34" height="34" fill="white" transform="translate(0.353516 0.0224609)"/>
</clipPath>
</defs>
</svg>
