<svg width="35" height="35" viewBox="0 0 35 35" fill="none" xmlns="http://www.w3.org/2000/svg">
<g clip-path="url(#clip0_168_109)">
<path d="M31.6904 5.73807H3.66699C2.02264 5.73807 0.678711 7.07609 0.678711 8.72635V26.656C0.678711 28.3069 2.0235 29.6443 3.66699 29.6443H31.6904C33.3348 29.6443 34.6787 28.3063 34.6787 26.656V8.72635C34.6787 7.07569 33.3341 5.73807 31.6904 5.73807ZM31.2316 7.73026C30.2654 8.69959 18.9169 20.0851 18.4506 20.5529C18.0612 20.9435 17.2964 20.9438 16.9068 20.5529L4.12586 7.73026H31.2316ZM2.6709 26.2898V9.09258L11.2416 17.6912L2.6709 26.2898ZM4.12586 27.6521L12.648 19.1022L15.4959 21.9593C16.6629 23.1301 18.695 23.1297 19.8616 21.9593L22.7094 19.1023L31.2316 27.6521H4.12586ZM32.6865 26.2898L24.1158 17.6912L32.6865 9.09258V26.2898Z" fill="#0B3D2C"/>
</g>
<defs>
<clipPath id="clip0_168_109">
<rect width="34" height="34" fill="white" transform="translate(0.678711 0.691193)"/>
</clipPath>
</defs>
</svg>
