<svg width="34" height="34" viewBox="0 0 34 34" fill="none" xmlns="http://www.w3.org/2000/svg">
<g clip-path="url(#clip0_238_840)">
<path d="M14.8751 24.9077C14.7331 24.9077 14.597 24.8513 14.4966 24.7509C14.3962 24.6506 14.3398 24.5144 14.3398 24.3725V11.6789C14.3398 11.537 14.3962 11.4008 14.4966 11.3004C14.597 11.2001 14.7331 11.1437 14.8751 11.1437C15.017 11.1437 15.1532 11.2001 15.2535 11.3004C15.3539 11.4008 15.4103 11.537 15.4103 11.6789V24.3711C15.4105 24.4415 15.3968 24.5113 15.37 24.5764C15.3431 24.6415 15.3037 24.7006 15.254 24.7505C15.2043 24.8003 15.1452 24.8399 15.0802 24.8668C15.0152 24.8938 14.9455 24.9077 14.8751 24.9077Z" fill="#2A7D2E"/>
<path d="M7.41512 26.1388C7.27316 26.1388 7.13703 26.0825 7.03665 25.9821C6.93627 25.8817 6.87988 25.7456 6.87988 25.6036V22.0522C6.87988 21.9102 6.93627 21.7741 7.03665 21.6737C7.13703 21.5734 7.27316 21.517 7.41512 21.517C7.55707 21.517 7.69321 21.5734 7.79359 21.6737C7.89396 21.7741 7.95035 21.9102 7.95035 22.0522V25.6043C7.95018 25.7461 7.89371 25.8821 7.79335 25.9823C7.69299 26.0825 7.55696 26.1388 7.41512 26.1388Z" fill="#2A7D2E"/>
<path d="M20.4288 8.72384C20.3247 8.72391 20.2228 8.6936 20.1356 8.63663C20.0484 8.57966 19.9798 8.4985 19.938 8.4031L18.9984 6.25286C18.9608 6.16689 18.9465 6.07255 18.9569 5.97931C18.9673 5.88606 19.002 5.79718 19.0576 5.72158C19.1131 5.64598 19.1876 5.58631 19.2735 5.54855C19.3593 5.51079 19.4536 5.49628 19.5469 5.50646L22.508 5.83185C22.6431 5.85415 22.7645 5.92739 22.8473 6.03651C22.93 6.14564 22.9678 6.28233 22.9528 6.41846C22.9379 6.55459 22.8713 6.6798 22.7668 6.76833C22.6623 6.85685 22.5278 6.90195 22.3911 6.89435L20.3491 6.66989L20.9182 7.97478C20.9538 8.05621 20.9686 8.14523 20.9612 8.23381C20.9538 8.32238 20.9245 8.40772 20.8758 8.48212C20.8272 8.55652 20.7608 8.61764 20.6826 8.65995C20.6045 8.70227 20.517 8.72445 20.4281 8.7245L20.4288 8.72384Z" fill="#2A7D2E"/>
<path d="M19.4891 6.57416H19.4572L17.6583 6.47322C17.519 6.462 17.3897 6.3968 17.2979 6.29154C17.2061 6.18627 17.1591 6.04929 17.1669 5.90983C17.1747 5.77036 17.2367 5.63948 17.3396 5.54511C17.4426 5.45074 17.5784 5.40037 17.718 5.40475L18.74 5.46252L18.4611 4.58197C18.4194 4.44725 18.4325 4.3015 18.4977 4.17642C18.5628 4.05133 18.6747 3.95702 18.809 3.91397C18.9433 3.87092 19.0892 3.88262 19.2149 3.94653C19.3407 4.01044 19.4361 4.12138 19.4804 4.25525L20.0004 5.87623C20.026 5.95659 20.0323 6.04186 20.0188 6.12511C20.0052 6.20835 19.9721 6.28721 19.9223 6.35525C19.8724 6.42329 19.8072 6.47859 19.7319 6.51663C19.6566 6.55467 19.5734 6.57438 19.4891 6.57416Z" fill="#2A7D2E"/>
<path d="M33.4648 29.3947H0.535234C0.393281 29.3947 0.257142 29.3383 0.156767 29.2379C0.0563906 29.1375 0 29.0014 0 28.8595C0 28.7175 0.0563906 28.5814 0.156767 28.481C0.257142 28.3806 0.393281 28.3242 0.535234 28.3242H33.4648C33.6067 28.3242 33.7429 28.3806 33.8432 28.481C33.9436 28.5814 34 28.7175 34 28.8595C34 29.0014 33.9436 29.1375 33.8432 29.2379C33.7429 29.3383 33.6067 29.3947 33.4648 29.3947Z" fill="#2A7D2E"/>
<path d="M12.6683 33.9781H0.535234C0.393281 33.9781 0.257142 33.9217 0.156767 33.8213C0.0563906 33.7209 0 33.5848 0 33.4428C0 33.3009 0.0563906 33.1647 0.156767 33.0644C0.257142 32.964 0.393281 32.9076 0.535234 32.9076H12.6683C12.8103 32.9076 12.9464 32.964 13.0468 33.0644C13.1472 33.1647 13.2036 33.3009 13.2036 33.4428C13.2036 33.5848 13.1472 33.7209 13.0468 33.8213C12.9464 33.9217 12.8103 33.9781 12.6683 33.9781Z" fill="#2A7D2E"/>
<path d="M33.4646 33.9781H15.5821C15.4402 33.9781 15.304 33.9217 15.2036 33.8213C15.1033 33.7209 15.0469 33.5848 15.0469 33.4428C15.0469 33.3009 15.1033 33.1647 15.2036 33.0644C15.304 32.964 15.4402 32.9076 15.5821 32.9076H33.4646C33.6066 32.9076 33.7427 32.964 33.8431 33.0644C33.9435 33.1647 33.9999 33.3009 33.9999 33.4428C33.9999 33.5848 33.9435 33.7209 33.8431 33.8213C33.7427 33.9217 33.6066 33.9781 33.4646 33.9781Z" fill="#2A7D2E"/>
<path d="M25.9091 12.0567C25.8012 12.0569 25.6958 12.0244 25.6066 11.9636C25.5175 11.9028 25.4488 11.8165 25.4096 11.7159C25.3704 11.6154 25.3625 11.5054 25.3869 11.4003C25.4114 11.2952 25.467 11.2 25.5465 11.127L27.5387 9.29421C27.6431 9.19805 27.7815 9.14731 27.9233 9.15317C28.0652 9.15902 28.1989 9.22098 28.2951 9.32542C28.3912 9.42986 28.442 9.56822 28.4361 9.71007C28.4303 9.85191 28.3683 9.98563 28.2638 10.0818L26.2717 11.9146C26.1731 12.0062 26.0436 12.0569 25.9091 12.0567Z" fill="#2A7D2E"/>
<path d="M12.6894 16.7471C12.6464 16.7471 12.6036 16.7419 12.5619 16.7318C11.7982 16.5445 10.8174 16.0013 10.3705 14.4959C9.79474 14.1725 8.3006 13.2049 7.94532 11.7154C7.75274 10.9066 7.91876 10.0912 8.43872 9.28564C8.1819 8.88662 7.98375 8.45276 7.85036 7.99736C7.49974 6.77018 7.74079 5.61271 8.54763 4.63521C8.53899 4.21951 8.59145 3.35822 9.07556 2.53678C9.27478 2.19678 9.80603 1.7399 9.96806 1.60709C9.98134 1.5958 9.99528 1.58518 10.0099 1.57588C10.6454 1.14291 11.4489 0.978223 12.4005 1.08182C12.7246 0.65084 13.4411 0.0219727 14.8748 0.0219727C16.3085 0.0219727 17.0237 0.65084 17.3465 1.08115C19.2596 0.871309 20.2019 1.77775 20.6621 2.60451C20.6998 2.66619 20.7247 2.73487 20.7351 2.80641C20.7455 2.87795 20.7414 2.95086 20.7229 3.02075C20.7044 3.09063 20.6719 3.15605 20.6274 3.21304C20.5829 3.27003 20.5274 3.31742 20.4641 3.35234C20.4008 3.38727 20.331 3.40901 20.2591 3.41626C20.1872 3.4235 20.1145 3.4161 20.0455 3.39449C19.9765 3.37288 19.9126 3.33753 19.8577 3.29055C19.8027 3.24357 19.7579 3.18595 19.7258 3.12115C19.255 2.27381 18.4176 1.96701 17.1638 2.18482C17.0418 2.2112 16.9143 2.19199 16.8054 2.13082C16.6965 2.06966 16.6138 1.97076 16.5728 1.85279C16.5383 1.77775 16.1857 1.09178 14.8742 1.09178C13.5626 1.09178 13.21 1.77775 13.1755 1.85279C13.1345 1.97076 13.0518 2.06966 12.9429 2.13082C12.834 2.19199 12.7065 2.2112 12.5845 2.18482C11.7657 2.04271 11.1096 2.12971 10.6334 2.44314C10.3791 2.65764 10.069 2.95846 9.9986 3.07799C9.53376 3.86822 9.6254 4.74545 9.62606 4.75408C9.63558 4.83086 9.62834 4.9088 9.60484 4.98251C9.58134 5.05623 9.54214 5.12397 9.48993 5.18107C7.89087 6.92756 9.44079 8.86064 9.50786 8.94166C9.58401 9.03498 9.62658 9.15119 9.62875 9.27162C9.63092 9.39205 9.59255 9.50972 9.51981 9.60572C9.02044 10.2558 8.84645 10.8615 8.98856 11.4585C9.30067 12.7779 11.0472 13.6359 11.0618 13.6446C11.1329 13.6791 11.1956 13.7288 11.2453 13.7904C11.295 13.8519 11.3305 13.9237 11.3493 14.0005C11.5797 14.9488 12.0599 15.5006 12.8182 15.6865C12.9453 15.7176 13.0567 15.7941 13.1312 15.9017C13.2058 16.0093 13.2383 16.1404 13.2227 16.2704C13.2071 16.4003 13.1444 16.52 13.0465 16.6069C12.9486 16.6937 12.8222 16.7417 12.6914 16.7417L12.6894 16.7471Z" fill="#2A7D2E"/>
<path d="M16.7743 16.8007C16.6417 16.7966 16.5154 16.7433 16.4199 16.6513C16.3243 16.5593 16.2663 16.4351 16.2571 16.3028C16.248 16.1705 16.2882 16.0395 16.3702 15.9352C16.4521 15.8308 16.5699 15.7607 16.7006 15.7382C17.5924 15.6134 18.1489 15.0476 18.4013 14.0084C18.42 13.9314 18.4555 13.8596 18.5054 13.798C18.5552 13.7365 18.6181 13.6867 18.6895 13.6524C19.1529 13.4124 19.5801 13.1081 19.9585 12.7486C20.0086 12.6981 20.0683 12.658 20.1341 12.6308C20.1998 12.6036 20.2704 12.5898 20.3416 12.5902C20.4127 12.5906 20.4831 12.6052 20.5486 12.6331C20.614 12.661 20.6733 12.7017 20.7228 12.7528C20.7724 12.8039 20.8113 12.8644 20.8372 12.9307C20.8631 12.997 20.8755 13.0678 20.8737 13.1389C20.8719 13.2101 20.8559 13.2802 20.8267 13.3451C20.7975 13.41 20.7556 13.4684 20.7036 13.517C20.3034 13.8981 19.8573 14.2278 19.3754 14.4984C18.882 16.1699 17.7392 16.6746 16.8467 16.7988C16.8226 16.8011 16.7985 16.8017 16.7743 16.8007Z" fill="#2A7D2E"/>
<path d="M9.45018 23.5596C9.32901 23.5594 9.21148 23.5181 9.11682 23.4425C9.02215 23.3669 8.95595 23.2614 8.92903 23.1432C8.90212 23.0251 8.91609 22.9013 8.96866 22.7921C9.02122 22.683 9.10928 22.5949 9.21842 22.5422C9.43158 22.438 10.0153 22.0674 10.1169 21.6205C10.1355 21.5408 10.1926 21.2984 9.89709 20.9139C9.82311 20.8177 9.78406 20.6991 9.78636 20.5777C9.78865 20.4563 9.83215 20.3393 9.90971 20.2459C9.97611 20.1635 10.5605 19.3979 9.92631 18.7053C9.83085 18.6011 9.78048 18.4633 9.78619 18.3221C9.79084 18.1548 9.74236 17.658 9.46346 17.4183C9.28151 17.2609 8.99529 17.2144 8.61213 17.2809C8.33654 17.3287 8.08088 17.1859 8.01049 16.9156C7.97729 16.8333 7.8458 16.6055 7.41283 16.6055C6.97986 16.6055 6.85104 16.8333 6.81518 16.9156C6.74877 17.1859 6.48912 17.3287 6.21354 17.2809C5.82838 17.2144 5.54151 17.2609 5.35955 17.4203C5.02752 17.7092 5.03881 18.3155 5.03947 18.3214C5.04519 18.4627 4.99482 18.6004 4.89936 18.7046C4.24459 19.4198 4.88807 20.2114 4.91596 20.2452C4.99352 20.3386 5.03702 20.4556 5.03931 20.577C5.04161 20.6984 5.00256 20.817 4.92858 20.9133C4.63307 21.2978 4.68951 21.5402 4.70877 21.6198C4.81369 22.0668 5.39408 22.4373 5.60924 22.5422C5.73571 22.6047 5.83241 22.7146 5.8783 22.848C5.92419 22.9814 5.91557 23.1275 5.85432 23.2545C5.79306 23.3816 5.68412 23.4793 5.55117 23.5265C5.41823 23.5737 5.27205 23.5665 5.1444 23.5064C5.01889 23.446 3.91123 22.8882 3.66885 21.8709C3.59514 21.5614 3.58186 21.1092 3.86408 20.5925C3.52608 19.9949 3.29166 19.0267 3.97498 18.1428C3.99889 17.7835 4.11709 17.0863 4.65432 16.6155C4.90865 16.3923 5.33963 16.1546 6.01033 16.1838C6.25736 15.8558 6.70295 15.535 7.41084 15.535C8.11873 15.535 8.56432 15.8558 8.81135 16.1838C9.48205 16.1553 9.91236 16.3923 10.1674 16.6155C10.7046 17.0863 10.8228 17.7835 10.8467 18.1428C11.53 19.0267 11.2963 19.9935 10.9576 20.5925C11.2398 21.1092 11.2232 21.5614 11.1528 21.8709C10.9105 22.8889 9.80279 23.4467 9.67729 23.5064C9.60645 23.5408 9.52888 23.5589 9.45018 23.5596Z" fill="#2A7D2E"/>
<path d="M21.3768 29.3761H11.2698C11.1451 29.3761 11.0243 29.3326 10.9283 29.2531C10.8323 29.1736 10.767 29.063 10.7438 28.9405C10.7332 28.8847 10.4941 27.5599 11.2346 26.3593C11.8435 25.3705 13.0441 25.1806 13.7029 25.1547C13.9805 24.3943 14.6877 23.4414 16.0703 23.4414H16.1274C17.5159 23.4673 18.2119 24.5889 18.4868 25.5C19.2969 25.3864 20.4451 25.6162 21.1497 26.5353C21.6727 27.2064 21.9409 28.0412 21.9067 28.8914C21.8942 29.0235 21.8331 29.1462 21.7351 29.2358C21.6372 29.3254 21.5095 29.3754 21.3768 29.3761ZM11.7698 28.3057H20.8057C20.7284 27.8986 20.5562 27.5154 20.303 27.1874C19.7226 26.4297 18.5884 26.4961 18.3832 26.6289C18.3068 26.679 18.2189 26.7087 18.1278 26.7153C18.0366 26.7218 17.9454 26.705 17.8626 26.6663C17.7798 26.6276 17.7083 26.5685 17.6548 26.4944C17.6014 26.4203 17.5677 26.3338 17.5571 26.2431C17.5491 26.1767 17.336 24.5338 16.1101 24.5112H16.0756C14.8995 24.5112 14.6598 25.6554 14.6359 25.7875C14.6138 25.9207 14.5418 26.0404 14.4347 26.1224C14.3275 26.2045 14.1931 26.2426 14.0588 26.2291C14.0462 26.2291 12.643 26.1156 12.1457 26.9231C11.8448 27.4085 11.7751 27.9431 11.7698 28.3057Z" fill="#2A7D2E"/>
<path d="M10.1899 29.3762H2.74311C2.61162 29.376 2.48478 29.3274 2.3868 29.2397C2.28882 29.152 2.22654 29.0314 2.21186 28.9007C2.16202 28.2398 2.28707 27.5774 2.57444 26.9802C2.84671 26.4344 3.53268 26.1787 3.66749 26.1329C3.91743 26.0526 4.17643 26.004 4.43846 25.9881C4.68284 25.3958 5.25526 24.7031 6.32772 24.7204C7.37428 24.7403 7.92147 25.5345 8.16186 26.2278C8.48206 26.2051 8.80363 26.2445 9.10881 26.344C9.17831 26.3635 9.24314 26.3969 9.29941 26.4421C9.35568 26.4873 9.40222 26.5435 9.43624 26.6071C9.47025 26.6708 9.49104 26.7407 9.49735 26.8126C9.50366 26.8845 9.49536 26.9569 9.47295 27.0255C9.45055 27.0941 9.41449 27.1575 9.36696 27.2118C9.31943 27.2661 9.2614 27.3103 9.19636 27.3416C9.13133 27.3729 9.06063 27.3908 8.98853 27.394C8.91642 27.3973 8.8444 27.386 8.77678 27.3607C8.44475 27.2511 8.13596 27.2943 8.05893 27.3315C7.9824 27.3806 7.89463 27.4094 7.80389 27.4152C7.71316 27.4209 7.62245 27.4035 7.54032 27.3645C7.45819 27.3255 7.38735 27.2662 7.33448 27.1922C7.28161 27.1183 7.24846 27.032 7.23815 26.9417C7.23284 26.8972 7.08874 25.8048 6.30846 25.7902C5.51159 25.7743 5.36948 26.5765 5.36417 26.6103C5.34178 26.7437 5.26979 26.8637 5.16264 26.9462C5.05549 27.0287 4.9211 27.0677 4.78643 27.0553C4.52474 27.0402 4.26244 27.0712 4.01147 27.1469C3.82553 27.2133 3.58249 27.3587 3.53268 27.4583C3.4032 27.7249 3.32075 28.0117 3.28897 28.3063H10.1899C10.3319 28.3063 10.468 28.3627 10.5684 28.4631C10.6688 28.5635 10.7251 28.6996 10.7251 28.8416C10.7251 28.9835 10.6688 29.1197 10.5684 29.22C10.468 29.3204 10.3319 29.3768 10.1899 29.3768V29.3762Z" fill="#2A7D2E"/>
<path d="M25.8857 29.3762C25.0702 29.3762 24.4865 28.7559 24.4633 27.8667L24.0688 21.1278C24.0658 21.0772 24.07 21.0265 24.0814 20.9771L25.4428 15.047L25.4242 14.0994C25.4215 13.9575 25.4752 13.8204 25.5736 13.7182C25.672 13.616 25.8069 13.557 25.9488 13.5542H25.9594C26.0996 13.5538 26.2344 13.6085 26.3348 13.7065C26.4351 13.8045 26.493 13.9379 26.496 14.0781L26.5159 15.0915C26.517 15.1362 26.5126 15.1808 26.5026 15.2243L25.1413 21.1411L25.5324 27.813V27.8329C25.537 28.0487 25.5988 28.3057 25.885 28.3057C26.2237 28.3057 26.2881 27.9856 26.3001 27.8714L26.6055 21.3085C26.6078 21.2613 26.6163 21.2146 26.6308 21.1697L27.069 19.8077C27.1125 19.6723 27.208 19.5598 27.3345 19.4949C27.461 19.4299 27.608 19.4179 27.7434 19.4614C27.8787 19.5049 27.9913 19.6004 28.0562 19.7268C28.1212 19.8533 28.1332 20.0004 28.0897 20.1357L27.6733 21.43L27.3705 27.9378V27.961C27.2928 28.7924 26.6832 29.3762 25.8857 29.3762Z" fill="#2A7D2E"/>
<path d="M29.7408 16.0616C29.6047 16.0608 29.474 16.0082 29.3753 15.9145C29.2766 15.8207 29.2174 15.6929 29.2096 15.5569L29.1047 13.7308C29.1032 13.7073 29.1032 13.6838 29.1047 13.6604L29.3995 9.70988C29.4008 9.69185 29.403 9.6739 29.4062 9.65609C29.5642 8.76824 29.278 7.808 28.9334 7.64464C28.0847 7.24621 27.3356 8.06367 27.3283 8.07164L27.3197 8.0816L24.6096 10.957C24.5223 11.0499 24.4047 11.1085 24.278 11.1224C24.1512 11.1363 24.0237 11.1045 23.9183 11.0327L20.7308 8.85855C20.6879 8.82959 20.636 8.81688 20.5845 8.82273C20.533 8.82857 20.4853 8.85257 20.45 8.89043C20.4292 8.91293 20.4135 8.93957 20.4039 8.96859C20.3942 8.99761 20.3908 9.02834 20.3939 9.05877C20.3969 9.0892 20.4064 9.11863 20.4217 9.14513C20.437 9.17163 20.4577 9.19459 20.4825 9.2125L24.2139 11.8502C24.2668 11.8886 24.3287 11.9129 24.3936 11.9208C24.4586 11.9287 24.5245 11.9199 24.5851 11.8953L25.5752 11.0984C25.6863 11.0148 25.8257 10.9777 25.9637 10.995C26.1018 11.0123 26.2276 11.0827 26.3147 11.1912C26.4017 11.2997 26.443 11.4379 26.43 11.5764C26.4169 11.7149 26.3504 11.8428 26.2446 11.9332L25.2073 12.7699C25.182 12.7902 25.1549 12.8083 25.1263 12.8237C24.8865 12.9514 24.6159 13.0097 24.3448 12.9921C24.0737 12.9745 23.8129 12.8817 23.5916 12.7241L19.8603 10.0864C19.5805 9.89117 19.3897 9.5928 19.33 9.25693C19.2702 8.92106 19.3463 8.57519 19.5415 8.29543C19.7367 8.01566 20.0351 7.82491 20.371 7.76513C20.7069 7.70535 21.0527 7.78145 21.3325 7.97668L24.1435 9.89449L26.5341 7.35246C26.6423 7.23425 27.8622 5.95793 29.3896 6.67843C30.3252 7.1207 30.6679 8.61484 30.4633 9.81679L30.1732 13.7062L30.2761 15.4992C30.2842 15.6409 30.2358 15.78 30.1414 15.886C30.047 15.9919 29.9144 16.0561 29.7727 16.0643L29.7408 16.0616Z" fill="#2A7D2E"/>
<path d="M28.2108 7.51519C27.7735 7.51519 27.3459 7.38549 26.9823 7.14251C26.6186 6.89953 26.3352 6.55416 26.1678 6.1501C26.0005 5.74603 25.9567 5.30141 26.042 4.87245C26.1273 4.44349 26.3379 4.04947 26.6472 3.74021C26.9565 3.43095 27.3505 3.22034 27.7794 3.13502C28.2084 3.0497 28.653 3.09349 29.0571 3.26086C29.4611 3.42823 29.8065 3.71166 30.0495 4.07531C30.2925 4.43896 30.4222 4.8665 30.4222 5.30386C30.4215 5.89012 30.1883 6.45217 29.7737 6.86673C29.3592 7.28128 28.7971 7.51448 28.2108 7.51519ZM28.2108 4.163C27.9852 4.163 27.7646 4.22991 27.577 4.35527C27.3894 4.48063 27.2432 4.65881 27.1568 4.86727C27.0705 5.07574 27.0479 5.30512 27.0919 5.52643C27.1359 5.74773 27.2446 5.95102 27.4041 6.11057C27.5637 6.27012 27.767 6.37878 27.9883 6.4228C28.2096 6.46682 28.439 6.44422 28.6474 6.35787C28.8559 6.27153 29.0341 6.1253 29.1594 5.93769C29.2848 5.75007 29.3517 5.5295 29.3517 5.30386C29.3515 5.00128 29.2313 4.71113 29.0174 4.49711C28.8035 4.28309 28.5134 4.16269 28.2108 4.16234V4.163Z" fill="#2A7D2E"/>
<path d="M23.8503 8.75373C23.7426 8.75379 23.6375 8.72114 23.5488 8.6601L22.4524 7.90971C22.1858 7.71995 22.0031 7.43427 21.9427 7.11266C21.8822 6.79105 21.9488 6.45853 22.1283 6.18495C22.3079 5.91137 22.5865 5.71801 22.9056 5.64548C23.2247 5.57295 23.5595 5.6269 23.8396 5.796L26.729 7.62018C26.8457 7.69737 26.9276 7.81725 26.9571 7.9541C26.9865 8.09095 26.9611 8.23389 26.8865 8.35227C26.8118 8.47066 26.6936 8.55507 26.5575 8.58741C26.4213 8.61976 26.2778 8.59746 26.1579 8.52529L23.2685 6.70111C23.2255 6.67725 23.175 6.67054 23.1272 6.68232C23.0794 6.69411 23.0378 6.72352 23.0107 6.76466C22.9837 6.80581 22.9732 6.85565 22.9814 6.90421C22.9895 6.95276 23.0157 6.99644 23.0547 7.0265L24.1511 7.77689C24.2454 7.8415 24.3166 7.93461 24.3541 8.0426C24.3917 8.15059 24.3937 8.26777 24.3599 8.37698C24.326 8.48618 24.2581 8.58168 24.166 8.64948C24.074 8.71728 23.9626 8.75381 23.8483 8.75373H23.8503Z" fill="#2A7D2E"/>
<path d="M29.3804 19.4816C29.3054 19.4813 29.2314 19.4654 29.163 19.4347C29.0946 19.4041 29.0334 19.3594 28.9833 19.3037C28.9333 19.2479 28.8955 19.1823 28.8723 19.111C28.8492 19.0397 28.8413 18.9644 28.8491 18.8899L29.211 15.47C29.2143 15.397 29.2325 15.3255 29.2644 15.2598C29.2964 15.1941 29.3414 15.1357 29.3968 15.0881C29.4522 15.0405 29.5167 15.0047 29.5865 14.983C29.6562 14.9612 29.7296 14.954 29.8023 14.9617C29.8749 14.9695 29.9452 14.992 30.0088 15.0278C30.0724 15.0637 30.128 15.1123 30.1721 15.1705C30.2163 15.2286 30.248 15.2952 30.2655 15.3662C30.2829 15.4371 30.2856 15.5108 30.2735 15.5828L29.9116 19.0028C29.8977 19.134 29.8357 19.2555 29.7377 19.3439C29.6396 19.4323 29.5124 19.4813 29.3804 19.4816Z" fill="#2A7D2E"/>
<path d="M29.4179 29.3761C28.7439 29.3761 28.2365 28.9597 28.0267 28.2339L27.8368 27.5804C27.7998 27.4449 27.8175 27.3003 27.8862 27.1777C27.9549 27.0551 28.0691 26.9645 28.204 26.9254C28.3389 26.8862 28.4839 26.9017 28.6075 26.9685C28.7311 27.0353 28.8235 27.148 28.8648 27.2823L29.0547 27.9364C29.1616 28.3063 29.3349 28.3063 29.4179 28.3063C29.4724 28.309 29.5268 28.2992 29.5769 28.2775C29.627 28.2559 29.6714 28.223 29.7068 28.1814C29.7493 28.1259 29.7793 28.0618 29.7947 27.9937C29.8102 27.9255 29.8108 27.8547 29.7964 27.7863L28.5633 21.7985C28.5522 21.7445 28.5495 21.6892 28.5553 21.6344L28.874 18.6256C28.8967 18.4912 28.9697 18.3704 29.0783 18.288C29.1869 18.2057 29.3229 18.1678 29.4584 18.1822C29.594 18.1966 29.7189 18.2622 29.8077 18.3655C29.8966 18.4689 29.9427 18.6023 29.9365 18.7385L29.6271 21.6643L30.845 27.5745V27.5831C30.8896 27.8066 30.8843 28.0372 30.8295 28.2584C30.7746 28.4797 30.6715 28.686 30.5276 28.8628C30.3927 29.0257 30.223 29.1564 30.0309 29.2452C29.8389 29.3341 29.6295 29.3788 29.4179 29.3761Z" fill="#2A7D2E"/>
<path d="M29.6369 14.2355H29.6057C28.5884 14.1764 26.551 13.4114 26.1167 10.9384C26.1021 10.8682 26.1017 10.7958 26.1156 10.7254C26.1295 10.655 26.1575 10.5882 26.1977 10.5288C26.238 10.4694 26.2898 10.4187 26.35 10.3798C26.4102 10.3408 26.4777 10.3144 26.5484 10.302C26.619 10.2896 26.6914 10.2915 26.7613 10.3077C26.8312 10.3239 26.8972 10.3539 26.9552 10.3961C27.0132 10.4382 27.0622 10.4916 27.0992 10.5531C27.1362 10.6145 27.1605 10.6828 27.1706 10.7538C27.5631 12.9964 29.5845 13.1611 29.6701 13.167C29.8081 13.1767 29.937 13.2395 30.0298 13.3421C30.1226 13.4447 30.172 13.5793 30.1677 13.7176C30.1634 13.8559 30.1057 13.9871 30.0068 14.0838C29.9078 14.1805 29.7753 14.2351 29.6369 14.2362V14.2355Z" fill="#2A7D2E"/>
</g>
<defs>
<clipPath id="clip0_238_840">
<rect width="34" height="34" fill="white"/>
</clipPath>
</defs>
</svg>
