<svg width="34" height="34" viewBox="0 0 34 34" fill="none" xmlns="http://www.w3.org/2000/svg">
<path d="M29.4052 15.7049C30.4009 15.0053 31.0602 13.8415 31.0602 12.5296C31.0602 10.3836 29.3245 8.64796 27.1785 8.64796C25.0324 8.64796 23.2968 10.3836 23.2968 12.5296C23.2968 13.8415 23.9493 15.0053 24.9517 15.7049C24.0973 16.0009 23.317 16.4584 22.6577 17.0504C21.7495 16.2768 20.6799 15.6848 19.5093 15.3349C20.9288 14.4738 21.8841 12.9064 21.8841 11.1236C21.8841 8.40577 19.6842 6.20593 16.9664 6.20593C14.2485 6.20593 12.0487 8.4125 12.0487 11.1236C12.0487 12.9064 12.9972 14.4738 14.4234 15.3349C13.2663 15.6848 12.2101 16.27 11.3087 17.0302C10.6494 16.4517 9.88247 16.0009 9.04155 15.7117C10.0372 15.012 10.6965 13.8482 10.6965 12.5364C10.6965 10.3903 8.96082 8.65469 6.8148 8.65469C4.66878 8.65469 2.93312 10.3903 2.93312 12.5364C2.93312 13.8482 3.58567 15.012 4.58805 15.7117C1.91729 16.6333 0 19.1695 0 22.1497V22.5937C0 22.6072 0.0134547 22.6207 0.0269094 22.6207H8.25445C8.20736 22.9907 8.18045 23.3741 8.18045 23.7576V24.215C8.18045 26.1929 9.78156 27.794 11.7594 27.794H22.1868C24.1646 27.794 25.7657 26.1929 25.7657 24.215V23.7576C25.7657 23.3741 25.7388 22.9907 25.6917 22.6207H33.9731C33.9865 22.6207 34 22.6072 34 22.5937V22.1497C33.9865 19.1628 32.076 16.6266 29.4052 15.7049ZM24.3732 12.5229C24.3732 10.9756 25.6312 9.71761 27.1785 9.71761C28.7258 9.71761 29.9838 10.9756 29.9838 12.5229C29.9838 14.05 28.7527 15.2946 27.2323 15.3282C27.2121 15.3282 27.1987 15.3282 27.1785 15.3282C27.1583 15.3282 27.1448 15.3282 27.1247 15.3282C25.5975 15.3013 24.3732 14.0567 24.3732 12.5229ZM13.1116 11.1236C13.1116 9.00451 14.8338 7.28231 16.9529 7.28231C19.072 7.28231 20.7942 9.00451 20.7942 11.1236C20.7942 13.1687 19.1864 14.8438 17.1749 14.9582C17.1009 14.9582 17.0269 14.9582 16.9529 14.9582C16.8789 14.9582 16.8049 14.9582 16.7309 14.9582C14.7194 14.8438 13.1116 13.1687 13.1116 11.1236ZM3.98932 12.5229C3.98932 10.9756 5.24733 9.71761 6.79462 9.71761C8.34191 9.71761 9.59992 10.9756 9.59992 12.5229C9.59992 14.05 8.36882 15.2946 6.84844 15.3282C6.82825 15.3282 6.8148 15.3282 6.79462 15.3282C6.77444 15.3282 6.76098 15.3282 6.7408 15.3282C5.22042 15.3013 3.98932 14.0567 3.98932 12.5229ZM8.44282 21.5375H1.08983C1.39256 18.6717 3.8144 16.4248 6.75425 16.4046C6.76771 16.4046 6.78116 16.4046 6.79462 16.4046C6.80807 16.4046 6.82153 16.4046 6.83498 16.4046C8.23427 16.4113 9.51247 16.9293 10.5014 17.7702C9.53265 18.8197 8.81282 20.1114 8.44282 21.5375ZM24.6759 24.215C24.6759 25.5941 23.5524 26.7176 22.1733 26.7176H11.7459C10.3668 26.7176 9.24337 25.5941 9.24337 24.215V23.7576C9.24337 19.5799 12.5801 16.1624 16.7309 16.0413C16.8049 16.048 16.8856 16.048 16.9596 16.048C17.0336 16.048 17.1144 16.048 17.1884 16.0413C21.3391 16.1624 24.6759 19.5799 24.6759 23.7576V24.215ZM25.4765 21.5375C25.1065 20.1181 24.4001 18.8466 23.4381 17.7971C24.4337 16.936 25.7254 16.418 27.1381 16.4046C27.1516 16.4046 27.165 16.4046 27.1785 16.4046C27.1919 16.4046 27.2054 16.4046 27.2188 16.4046C30.1587 16.4248 32.5805 18.6717 32.8833 21.5375H25.4765Z" fill="#2A7D2E"/>
</svg>
